<svg width="100" height="100" viewBox="0 0 100 100" fill="none" xmlns="http://www.w3.org/2000/svg">
<path d="M41.0938 76.9336L20.4219 27.7852L27.6289 24.5859L43.5547 65.2969C44.6562 62.9531 45.7344 60.6562 46.7891 58.4062C47.2344 57.4688 47.6914 56.4844 48.1602 55.4531C48.6523 54.4219 49.1211 53.4141 49.5664 52.4297C50.0352 51.4453 50.4805 50.4961 50.9023 49.582C51.3477 48.668 51.7461 47.8477 52.0977 47.1211C52.7773 45.6914 53.375 44.25 53.8906 42.7969C54.4297 41.3203 54.6992 39.7617 54.6992 38.1211C54.6992 36.8555 54.5234 35.6602 54.1719 34.5352C53.8203 33.4102 53.3281 32.3438 52.6953 31.3359C52.0859 30.3047 51.3477 29.3437 50.4805 28.4531C49.6133 27.5391 48.6641 26.6836 47.6328 25.8867L53.5391 19.2773C54.5234 19.9102 55.4141 20.6953 56.2109 21.6328C57.0078 22.5703 57.6875 23.5781 58.25 24.6562C58.8125 25.7344 59.2461 26.8477 59.5508 27.9961C59.8789 29.1445 60.043 30.2461 60.043 31.3008C60.043 33.3633 59.7031 35.3789 59.0234 37.3477C58.3672 39.293 57.5938 41.1914 56.7031 43.043C56.0234 44.4258 55.2852 45.9727 54.4883 47.6836C53.6914 49.3945 52.8594 51.1758 51.9922 53.0273C51.1484 54.8555 50.2812 56.7188 49.3906 58.6172C48.5234 60.5156 47.6914 62.3555 46.8945 64.1367C44.9961 68.3086 43.0625 72.5742 41.0938 76.9336Z" fill="white"/>
<circle cx="72.5" cy="19.5" r="6.5" stroke="white" stroke-width="2"/>
</svg>
